<?xml version="1.0" standalone="no"?><svg data-noselect="" 
  viewBox="86.78970135045412 46.61881081276 651 488.21935295468995" 
  width="651" 
  height="488.21935295468995" 
  ref="svg_canvas" 
  preserveAspectRatio="none" 
  version="1.1" xmlns="http://www.w3.org/2000/svg" 
  style="background: #ffffff;">
    <defs></defs>
    <g id="shape_ARIh39wZQH" class=""  ref="shape_ARIh39wZQH" key="shape_ARIh39wZQH" transform="translate(268.72458021366,290.09878967928) rotate(0,74.884404447385,16.177631681444) scale(1,1)" style="cursor:move;display:inline;opacity:1;" filter="">
            <g style="display:inline"><rect fill="rgba(0,0,0,0)" width="169.76880889476982" height="52.35526336288824" x="-10" y="-10"></rect><svg version="1.1" id="图层_1" xmlns="http://www.w3.org/2000/svg" xmlns:xlink="http://www.w3.org/1999/xlink" x="0px" y="0px" width="149.76880889476982" height="32.35526336288824" viewBox="0.9409999847412109 0.6000000238418579 69.45899200439453 15.00555419921875" style="enable-background:new 0 0 71.4 16.2;" xml:space="preserve" class="style-removed" preserveAspectRatio="none" data-parent="shape_ARIh39wZQH">

<path d="M1,0.6C0.6,3.1,2.3,3.2,4.1,3.2c5.6,0,11.1,0,16.7,0.1c1.7,0,4.3,0.1,4.4,2.4c0.1,1.9-2.6,1.7-4,1.9
	c-2.2,0.2-4.4,0-6.6,0c-5,0-5.6,2.8-5.6,5.2c0,1.2,2.8,2.8,4.2,2.8c10.2,0,41.9,0,52.1,0c1.9,0,3.8,0.2,5.1-1.8
	c-11.2,0-22.3,0-33.4,0c-5.8,0-11.7,0-17.5,0c-0.7,0-1.8,0-2.6-0.3c-1-0.4-2-0.7-2.1-1.8c0-1.2,1.6-2.1,2.6-2.3
	c1.7-0.4,3.5-0.2,5.2-0.2c2,0,4.1,0.1,6.1,0c2.8-0.1,4.6-1.6,4.7-3.7c0.1-2.2-1.9-4-4.8-4c-7.5-0.1-14.9,0-22.4-0.1
	C4.8,1.4,3.2,1,1,0.6z" fill="#ae7f47" stroke-width="0"></path>
</svg></g>
        </g><g id="shape_FayipvGZXe" class=""  ref="shape_FayipvGZXe" key="shape_FayipvGZXe" transform="translate(241.82577129338,413.90100170206) rotate(0,78.554503575577,20.468581032695) scale(1,1)" style="cursor:move;display:inline;opacity:1;" filter="">
            <g style="display:inline"><rect fill="rgba(0,0,0,0)" width="177.10900715115335" height="60.93716206538969" x="-10" y="-10"></rect><svg version="1.1" id="图层_1" xmlns="http://www.w3.org/2000/svg" xmlns:xlink="http://www.w3.org/1999/xlink" x="0px" y="0px" width="157.10900715115335" height="40.93716206538969" viewBox="0 0 185.38 42.06" style="enable-background:new 0 0 185.38 42.06;" xml:space="preserve" class="style-removed" preserveAspectRatio="none" data-parent="shape_FayipvGZXe">

<g>
	<path d="M120.72,41.95c-8.64-0.16-17.28-0.51-25.96-1.11c-14.2-1-28.38-2.3-42.45-4.47
		c-11.82-1.82-23.98-3.86-35.36-7.62c-3.69-1.22-7.3-2.73-10.68-4.67c-3.19-1.83-6.25-4.9-6.27-8.81c-0.02-4.08,3.61-7.22,6.98-8.94
		c3.95-2.01,8.42-3.31,12.67-4.46c2-0.54,4.01-1.04,6.03-1.46c0.17-0.03,2.78-0.39,2.79-0.42c-0.16,0.66-1.73,1.43-2.23,1.78
		c-2.41,1.66-5,3.03-7.46,4.61c-2.08,1.33-4.37,3.23-4.29,5.96c0.13,4.24,6.47,6.19,9.84,7.38c18.2,6.42,34.41,8.99,53.29,11.73
		c30.4,4.4,61.25,4.91,91.89,7.2c1.88,0.14,15.11,1.43,15.87,1.93c-0.35-0.23-2.49,0.25-2.93,0.27c-2.45,0.15-4.9,0.24-7.35,0.33
		c-7.62,0.28-15.25,0.48-22.87,0.65C141.68,42.06,131.2,42.15,120.72,41.95z" fill="#AE7F47" stroke-width="0"></path>
	<path d="M89.27,22.61c-2.69-0.54-5.15-1.45-6.96-3.03c-2.23-1.96-1.31-4.53,1.27-5.86c5.18-2.68,11.06-3.52,16.81-4.19
		c2.88-0.34,5.78-0.43,8.68-0.51c3.76-0.11,8.62,0.21,8.79,0.15c-6.43,1.31-16.33,4.33-16.41,6.3c-0.08,1.91,1.48,2.4,4.39,2.73
		c12.34,1.4,54.11,5.86,54.11,5.86s-5.66,1.13-11.59,1.28c-7.77,0.19-21.63,0.08-30.41-0.09c-6.11-0.12-12.48-0.85-18.57-1.36
		C96.93,23.7,92.65,23.3,89.27,22.61z" fill="#AE7F47" stroke-width="0"></path>
</g>
</svg></g>
        </g><g id="shape_aXUE6x8GII" class=""  ref="shape_aXUE6x8GII" key="shape_aXUE6x8GII" transform="translate(418.77416044369,411.1682539349) rotate(-179,76.712710746927,16.757290962951) scale(1,1)" style="cursor:move;display:inline;opacity:1;" filter="">
            <g style="display:inline"><rect fill="rgba(0,0,0,0)" width="173.42542149385395" height="53.514581925901666" x="-10" y="-10"></rect><svg version="1.1" id="图层_1" xmlns="http://www.w3.org/2000/svg" xmlns:xlink="http://www.w3.org/1999/xlink" x="0px" y="0px" width="153.42542149385395" height="33.514581925901666" viewBox="0 0 185.38 42.06" style="enable-background:new 0 0 185.38 42.06;" xml:space="preserve" class="style-removed" preserveAspectRatio="none" data-parent="shape_aXUE6x8GII">

<g>
	<path d="M120.72,41.95c-8.64-0.16-17.28-0.51-25.96-1.11c-14.2-1-28.38-2.3-42.45-4.47
		c-11.82-1.82-23.98-3.86-35.36-7.62c-3.69-1.22-7.3-2.73-10.68-4.67c-3.19-1.83-6.25-4.9-6.27-8.81c-0.02-4.08,3.61-7.22,6.98-8.94
		c3.95-2.01,8.42-3.31,12.67-4.46c2-0.54,4.01-1.04,6.03-1.46c0.17-0.03,2.78-0.39,2.79-0.42c-0.16,0.66-1.73,1.43-2.23,1.78
		c-2.41,1.66-5,3.03-7.46,4.61c-2.08,1.33-4.37,3.23-4.29,5.96c0.13,4.24,6.47,6.19,9.84,7.38c18.2,6.42,34.41,8.99,53.29,11.73
		c30.4,4.4,61.25,4.91,91.89,7.2c1.88,0.14,15.11,1.43,15.87,1.93c-0.35-0.23-2.49,0.25-2.93,0.27c-2.45,0.15-4.9,0.24-7.35,0.33
		c-7.62,0.28-15.25,0.48-22.87,0.65C141.68,42.06,131.2,42.15,120.72,41.95z" fill="#AE7F47" stroke-width="0"></path>
	<path d="M89.27,22.61c-2.69-0.54-5.15-1.45-6.96-3.03c-2.23-1.96-1.31-4.53,1.27-5.86c5.18-2.68,11.06-3.52,16.81-4.19
		c2.88-0.34,5.78-0.43,8.68-0.51c3.76-0.11,8.62,0.21,8.79,0.15c-6.43,1.31-16.33,4.33-16.41,6.3c-0.08,1.91,1.48,2.4,4.39,2.73
		c12.34,1.4,54.11,5.86,54.11,5.86s-5.66,1.13-11.59,1.28c-7.77,0.19-21.63,0.08-30.41-0.09c-6.11-0.12-12.48-0.85-18.57-1.36
		C96.93,23.7,92.65,23.3,89.27,22.61z" fill="#AE7F47" stroke-width="0"></path>
</g>
</svg></g>
        </g><g id="shape_zjYHRF1KTs" class="brand_number"  ref="shape_zjYHRF1KTs" key="shape_zjYHRF1KTs" transform="translate(166.82477844453496,-337.82118918724007) rotate(0,259.24418689416,556.94) scale(1,1)" style="cursor:move;display:inline;opacity:1;" filter="">
            <g style="display:inline"><svg xmlns="http://www.w3.org/2000/svg" version="1.1" xmlns:xlink="http://www.w3.org/1999/xlink" width="773.44" height="1113.88" viewBox="0 0 773.44 1113.88" preserveAspectRatio="none" data-parent="shape_zjYHRF1KTs"><rect fill="rgba(0,0,0,0)" width="155" height="185" x="154.61" y="464.44000000000005"></rect><g data-width="154.61" transform="translate(154.805, 0)"><path d="M124.31 0.62Q124.62 1.08 124.92 2.01L124.92 2.01Q125.23 3.40 125.85 3.87L125.85 3.87L127.24 5.10L128.33 4.64L129.72 7.11Q130.03 6.65 129.87 6.49L129.87 6.49Q129.56 5.88 130.03 5.72Q130.49 5.57 130.65 5.57L130.65 5.57Q131.11 5.57 131.57 5.10L131.57 5.10Q131.88 5.10 131.88 4.64L131.88 4.64L132.35 5.10L132.66 5.72Q132.96 5.57 133.51 5.33Q134.05 5.10 134.05 4.95L134.05 4.95Q134.20 4.02 134.43 3.94Q134.67 3.87 135.44 4.33L135.44 4.33Q136.21 4.95 137.76 5.57L137.76 5.57Q138.99 5.57 139.30 3.71L139.30 3.71Q139.46 2.01 139.46-1.39L139.46-1.39L139.46-2.32L139.61-6.03L139.30-13.45Q139.30-13.76 139.23-14.22Q139.15-14.69 139.30-15.46L139.30-15.46L139.30-17.47Q139.30-18.86 139.46-19.48L139.46-19.48Q139.61-19.64 139.54-19.71Q139.46-19.79 139.46-19.94L139.46-19.94L139.46-22.57L139.46-25.82L139.30-29.38L139.46-39.27L139.30-41.74Q139.30-44.06 139.77-46.07L139.77-46.07Q140.08-47.62 140.08-48.39L140.08-48.39Q140.08-50.25 139.15-53.96L139.15-53.96Q138.53-56.74 138.53-58.13L138.53-58.13Q138.22-60.61 138.22-61.84L138.22-61.84Q138.22-63.39 138.38-64.16L138.38-64.16Q138.53-66.79 138.45-68.65Q138.38-70.50 138.38-71.74L138.38-71.74Q138.22-74.21 138.22-79.31L138.22-79.31Q138.22-80.55 138.07-81.17L138.07-81.17L137.91-85.81Q137.60-89.36 137.91-92.92L137.91-92.92Q137.91-94.47 136.98-97.56L136.98-97.56L136.37-99.57Q136.21-101.27 134.82-102.04L134.82-102.04Q134.20-102.51 133.58-103.43L133.58-103.43Q133.27-104.05 132.50-104.36L132.50-104.36Q132.19-104.52 131.88-104.67Q131.57-104.83 131.26-104.98L131.26-104.98Q130.34-105.75 128.94-105.75L128.94-105.75Q126.16-106.37 124.77-106.53L124.77-106.53L123.53-106.53Q122.30-106.68 119.51-106.99Q116.73-107.30 114.57-107.30L114.57-107.30Q112.09-107.30 109.39-106.68Q106.68-106.06 106.06-105.91L106.06-105.91Q104.83-105.60 103.74-105.29Q102.66-104.98 101.73-104.67L101.73-104.67L96.48-103.43L94.93-103.12L91.07-101.89Q90.60-101.73 90.37-101.58Q90.14-101.42 89.98-101.27L89.98-101.27L90.60-97.71L90.45-97.40L88.59-97.87Q88.75-97.56 88.75-97.10L88.75-97.10Q88.75-95.39 90.29-94.93L90.29-94.93Q91.07-94.62 91.37-94.16L91.37-94.16Q91.53-94.00 91.30-93.54Q91.07-93.08 91.07-92.92L91.07-92.92Q91.07-92.61 90.91-92.46L90.91-92.46Q90.60-89.36 90.29-87.66L90.29-87.66Q90.14-86.89 90.21-85.89Q90.29-84.88 90.29-84.26L90.29-84.26Q90.29-83.49 90.14-83.03L90.14-83.03Q90.14-83.03 90.21-82.95Q90.29-82.87 90.29-82.87L90.29-82.87L90.29-81.94Q90.29-81.02 89.98-80.71L89.98-80.71Q89.06-79.47 90.14-78.70L90.14-78.70Q90.45-78.54 90.76-77.61L90.76-77.61Q91.07-77.15 91.61-76.30Q92.15-75.45 92.77-74.83L92.77-74.83Q93.54-74.06 93.08-72.98L93.08-72.98Q93.08-72.82 93.00-72.67Q92.92-72.51 93.08-72.36L93.08-72.36Q93.54-72.05 94.16-71.51Q94.78-70.97 95.39-70.81L95.39-70.81Q97.87-70.19 103.12-70.19L103.12-70.19L110.86-70.66Q114.26-70.97 115.96-70.97L115.96-70.97L116.27-70.97Q116.89-70.97 117.43-71.12Q117.97-71.28 118.43-71.43L118.43-71.43L118.59-71.58L119.67-72.51Q119.67-72.51 119.75-72.43Q119.82-72.36 119.82-72.36L119.82-72.36L119.82-73.29L121.06-73.44L120.60-74.21Q121.06-74.37 121.68-75.22Q122.30-76.07 123.07-75.91L123.07-75.91L121.83-76.22Q119.67-77.46 119.36-77.61L119.36-77.61Q118.74-77.92 116.89-78.23L116.89-78.23Q116.58-78.39 116.27-78.54Q115.96-78.70 115.49-78.70L115.49-78.70L111.94-78.54Q108.23-78.54 106.37-78.08L106.37-78.08L104.36-78.08L101.58-77.61L101.27-77.61Q100.81-77.61 100.42-77.85Q100.03-78.08 100.03-78.39L100.03-78.39Q99.72-81.17 99.72-82.41L99.72-82.41L99.72-83.18L101.11-83.18L104.98-83.64Q108.07-83.95 109.46-84.42L109.46-84.42Q111.32-85.04 112.25-85.19L112.25-85.19Q113.17-85.34 115.49-85.34L115.49-85.34Q115.03-84.88 115.26-84.57Q115.49-84.26 115.96-84.26L115.96-84.26Q116.73-83.95 117.19-84.26L117.19-84.26Q119.98-84.88 121.52-84.73L121.52-84.73Q122.14-84.73 122.14-85.19L122.14-85.19Q122.14-85.81 123.07-86.12L123.07-86.12Q123.53-86.43 123.53-86.74L123.53-86.74L123.53-87.35Q123.84-87.66 124.00-87.66L124.00-87.66Q124.31-87.66 124.31-87.35L124.31-87.35L124.31-81.32Q124.46-80.40 124.38-79.47Q124.31-78.54 124.46-77.61L124.46-77.61Q124.46-74.21 124.77-72.51L124.77-72.51Q124.77-72.05 124.85-71.28Q124.92-70.50 124.77-70.04L124.77-70.04Q124.62-68.65 124.69-67.64Q124.77-66.64 124.77-66.02L124.77-66.02L124.77-63.08Q124.92-61.38 125.54-57.98L125.54-57.98Q125.70-57.36 126.08-55.74Q126.47-54.11 126.16-52.88L126.16-52.88L125.85-49.94Q125.54-48.39 125.54-47.77L125.54-47.77Q125.54-47.16 125.62-46.23Q125.70-45.30 125.54-44.53L125.54-44.53L125.54-44.06L125.54-41.90Q125.54-40.51 125.39-39.73L125.39-39.73L125.54-38.81L125.54-37.11Q125.23-34.63 125.23-33.40L125.23-33.40Q125.08-32.62 125.16-31.46Q125.23-30.30 125.23-29.84L125.23-29.84Q125.23-27.98 124.92-23.96L124.92-23.96L124.77-18.09L124.46-11.90L124.62-10.20L124.46-7.11L124.62-2.63Q124.62-2.32 124.69-1.62Q124.77-0.93 124.31-0.62L124.31-0.62L124.31 0.62ZM29.22-62.77Q29.22-62.93 29.53-62.93L29.53-62.93L30.61-61.84Q31.54-60.92 32.47-60.92L32.47-60.92L35.10-61.07Q35.71-61.07 36.72-61.15Q37.72-61.23 39.12-61.53L39.12-61.53Q40.66-61.84 42.13-62.15Q43.60-62.46 45.15-62.77L45.15-62.77Q46.07-62.93 48.47-63.16Q50.87-63.39 52.72-63.85L52.72-63.85L53.19-64.01Q54.11-64.01 54.42-62.62L54.42-62.62L54.42-61.23L54.73-61.69Q54.73-62.46 55.35-62.93L55.35-62.93Q55.66-63.24 55.89-63.47Q56.12-63.70 56.43-64.01L56.43-64.01Q57.05-64.63 57.51-64.63L57.51-64.63Q58.60-64.63 58.91-65.40L58.91-65.40Q58.91-65.55 59.14-65.79Q59.37-66.02 59.52-66.02L59.52-66.02L60.61-66.02L60.92-66.02Q62.00-66.02 62.00-67.26L62.00-67.26Q62.00-68.80 63.08-70.19L63.08-70.19Q64.47-71.28 66.02-72.98L66.02-72.98Q66.64-73.90 66.79-74.52L66.79-74.52Q66.95-74.99 66.87-75.30Q66.79-75.60 66.79-75.91L66.79-75.91L66.64-76.53Q66.33-76.38 65.55-75.60Q64.78-74.83 63.70-74.83L63.70-74.83Q63.70-75.76 64.01-78.23L64.01-78.23Q64.01-81.63 64.16-83.33L64.16-83.33L64.63-88.59L64.78-93.69L64.32-98.95L64.16-100.65L63.54-101.73Q63.54-102.04 64.16-102.97L64.16-102.97L63.39-103.12Q62.77-103.28 61.38-103.67Q59.99-104.05 59.22-104.67L59.22-104.67Q57.67-105.60 54.42-106.22L54.42-106.22Q53.03-106.68 49.78-106.68L49.78-106.68Q46.23-106.68 44.37-106.53L44.37-106.53L40.82-106.22Q36.18-105.91 34.01-105.60L34.01-105.60Q32.62-105.44 29.84-104.52L29.84-104.52Q27.37-103.90 24.12-102.82L24.12-102.82Q23.19-102.51 23.04-102.51L23.04-102.51Q22.42-102.51 21.80-103.12L21.80-103.12Q21.03-103.90 20.10-103.12L20.10-103.12L19.33-102.66L20.56-100.65Q20.72-100.34 20.72-100.03Q20.72-99.72 20.56-99.57L20.56-99.57Q19.94-99.11 19.56-98.18Q19.17-97.25 18.86-96.63L18.86-96.63Q18.55-96.01 19.02-95.55L19.02-95.55Q19.02-95.55 19.94-94.62L19.94-94.62L19.64-94.47Q19.33-94.47 18.86-94.62Q18.40-94.78 18.24-94.16L18.24-94.16L18.24-94.00Q19.02-93.38 19.02-92.92L19.02-92.92Q19.02-92.30 18.40-91.84L18.40-91.84Q18.24-91.68 17.86-91.45Q17.47-91.22 17.63-90.76L17.63-90.76Q17.78-90.14 17.78-88.90L17.78-88.90Q17.78-87.20 17.63-86.43L17.63-86.43L17.47-85.19L17.47-82.72L17.47-81.79L17.63-81.02L17.47-78.54Q17.47-77.92 17.63-77.31Q17.78-76.69 17.78-76.07L17.78-76.07Q17.63-74.83 17.70-72.90Q17.78-70.97 17.63-69.88L17.63-69.88L17.63-69.11Q17.63-68.03 17.78-67.41L17.78-67.41L17.63-66.79L17.47-66.33Q17.78-65.40 17.78-64.94L17.78-64.94Q17.78-64.01 17.32-63.08L17.32-63.08Q17.16-62.93 17.16-62.62L17.16-62.62Q17.47-60.76 17.47-60.14L17.47-60.14Q17.63-59.22 17.55-58.44Q17.47-57.67 17.47-57.05L17.47-57.05Q17.47-56.43 17.32-55.43Q17.16-54.42 17.47-53.65L17.47-53.65L17.32-53.19L16.85-48.55L16.85-47.16Q16.85-46.38 16.70-45.92L16.70-45.92Q15.92-44.53 16.39-42.98L16.39-42.98L16.39-41.28L15.62-37.42L15.62-36.33Q15.31-33.55 15.31-32.16L15.31-32.16Q15.31-31.70 15.38-31.15Q15.46-30.61 15.31-29.99L15.31-29.99Q14.84-29.07 14.84-28.14L14.84-28.14Q14.84-27.21 15.31-26.28L15.31-26.28Q15.46-25.82 15.38-25.20Q15.31-24.58 15.31-24.27L15.31-24.27L15.46-23.50Q15.46-22.88 15.77-21.34L15.77-21.34L15.62-19.48L15.77-16.39L15.77-12.83L15.77-11.75L15.77-8.66L15.77-6.03Q15.77-4.02 15.62-2.94L15.62-2.94Q15.62-0.15 15.46 1.24L15.46 1.24Q15.46 2.01 15.77 2.16L15.77 2.16Q15.77 2.16 16.70 3.56L16.70 3.56Q17.01 3.87 17.32 3.94Q17.63 4.02 17.93 3.56L17.93 3.56L19.64 5.10Q19.94 4.95 20.49 4.56Q21.03 4.17 21.18 3.56L21.18 3.56L21.49 3.40L22.88 2.94Q23.19 2.78 23.66 2.47Q24.12 2.16 24.58 2.47L24.58 2.47Q24.74 2.63 25.05 2.47Q25.36 2.32 25.36 2.16L25.36 2.16Q25.82 1.55 25.82 0.46L25.82 0.46Q25.82 0.15 26.28-2.94L26.28-2.94Q26.59-4.48 26.59-5.26L26.59-5.26Q26.75-7.27 26.75-11.29L26.75-11.29L26.90-20.56L26.75-25.67Q26.75-27.37 27.06-31.39L27.06-31.39Q27.06-34.32 27.37-40.82L27.37-40.82Q27.37-43.29 27.98-47.62L27.98-47.62Q27.98-48.39 28.29-50.56L28.29-50.56L28.76-55.20L29.22-61.07L29.22-62.77ZM124.15-89.36L119.20-90.45Q118.59-90.60 117.04-90.60L117.04-90.60L116.58-90.60Q115.49-90.91 114.72-90.60L114.72-90.60Q114.26-90.45 113.72-90.60Q113.17-90.76 112.71-90.60L112.71-90.60L109.77-90.45Q107.61-90.45 106.68-90.29L106.68-90.29L103.12-89.83Q102.82-89.83 102.35-89.75Q101.89-89.67 101.27-89.83L101.27-89.83Q100.65-90.14 100.65-90.91L100.65-90.91L100.65-94.31L100.81-94.62Q101.27-94.78 103.43-95.86L103.43-95.86L104.52-96.32L108.23-97.25L112.09-98.18Q112.87-98.49 114.26-98.49L114.26-98.49Q115.80-98.49 116.42-98.33L116.42-98.33Q117.66-98.33 119.82-98.02L119.82-98.02Q120.60-98.02 122.76-97.71L122.76-97.71L123.07-97.56L123.84-95.24L124.15-93.54L124.15-92.46L124.15-89.36ZM51.18-88.44Q49.32-88.13 48.39-88.44L48.39-88.44Q47.47-88.90 46.23-88.59L46.23-88.59L42.67-87.82L36.49-86.43L30.15-85.50Q29.38-85.34 29.38-86.27L29.38-86.27L28.76-89.67Q28.76-90.29 28.91-90.45L28.91-90.45Q30.61-92.46 32.31-92.46L32.31-92.46Q32.93-92.46 33.32-92.61Q33.70-92.77 34.01-92.92L34.01-92.92L38.81-94.16Q40.51-94.62 42.90-94.62Q45.30-94.62 46.54-94.62L46.54-94.62Q48.86-94.62 49.94-94.78L49.94-94.78Q51.02-94.78 51.18-94.62Q51.33-94.47 51.33-93.38L51.33-93.38Q51.18-91.99 51.18-89.06L51.18-89.06L51.18-88.44ZM29.22-78.23L29.69-78.23Q30.77-77.61 32.16-77.61L32.16-77.61Q34.17-77.61 36.18-78.31Q38.19-79.01 38.96-79.16L38.96-79.16Q39.27-79.16 39.58-79.47L39.58-79.47Q39.89-79.78 40.35-79.78Q40.82-79.78 40.97-79.47L40.97-79.47L40.97-78.85L40.20-77.77Q40.51-77.77 41.13-77.77Q41.74-77.77 42.05-77.92L42.05-77.92L45.46-79.62Q46.85-80.55 47.00-80.71L47.00-80.71Q47.62-81.48 48.62-81.79Q49.63-82.10 50.09-82.25L50.09-82.25Q50.40-82.25 51.33-82.56L51.33-82.56L51.49-81.94L51.33-77.00L51.33-76.22L51.49-75.30Q51.49-74.83 51.18-73.90L51.18-73.90Q51.02-73.44 51.02-72.20L51.02-72.20Q51.02-71.74 50.40-71.74L50.40-71.74Q47.16-71.89 40.66-70.97L40.66-70.97L38.19-70.50Q34.32-69.73 32.93-69.42L32.93-69.42L30.77-69.42Q30.46-69.42 30.46-69.73L30.46-69.73Q30.30-70.04 30.23-70.42Q30.15-70.81 29.69-70.97L29.69-70.97Q29.53-70.97 29.53-71.04Q29.53-71.12 29.53-71.28L29.53-71.28Q29.22-74.68 29.22-76.22L29.22-76.22L29.22-78.23ZM66.95-59.68Q66.48-59.22 66.17-59.22L66.17-59.22Q65.40-58.91 65.01-58.06Q64.63-57.21 64.32-56.74L64.32-56.74Q64.16-56.59 64.47-55.81L64.47-55.81L66.79-53.65Q67.41-53.03 68.34-53.03L68.34-53.03Q68.96-53.03 69.50-53.19Q70.04-53.34 70.66-53.34L70.66-53.34Q70.97-53.50 71.35-53.42Q71.74-53.34 72.05-53.50L72.05-53.50Q76.07-54.42 78.08-54.73L78.08-54.73Q80.71-55.35 81.48-55.50L81.48-55.50Q81.63-55.66 81.79-55.58Q81.94-55.50 81.94-55.35L81.94-55.35Q82.25-55.04 81.94-54.73L81.94-54.73L81.48-54.73L80.86-54.58L80.40-54.58Q79.78-54.73 79.78-54.11L79.78-54.11L79.93-52.72Q80.09-52.26 80.32-51.72Q80.55-51.18 80.40-50.56L80.40-50.56L80.40-50.25L80.55-48.86Q80.86-47.62 80.86-47.16L80.86-47.16Q80.86-47.00 80.78-46.92Q80.71-46.85 80.86-46.69L80.86-46.69Q81.02-45.92 80.09-45.92L80.09-45.92Q74.83-45.30 68.80-43.75L68.80-43.75Q66.79-43.29 63.08-42.05L63.08-42.05L61.23-41.90Q61.38-42.36 61.38-43.29L61.38-43.29L61.53-44.99Q61.53-44.99 61.46-45.30Q61.38-45.61 61.53-45.76L61.53-45.76L61.53-47.77Q61.53-49.48 61.07-50.40L61.07-50.40Q60.92-50.87 60.61-51.49Q60.30-52.10 59.99-52.88L59.99-52.88Q59.83-53.19 59.37-54.04Q58.91-54.89 58.91-55.81L58.91-55.81L58.75-56.28Q58.75-56.28 57.67-57.36L57.67-57.36Q56.74-58.44 55.66-57.51L55.66-57.51Q55.04-56.90 54.89-56.05Q54.73-55.20 54.73-55.04L54.73-55.04Q54.27-52.57 53.65-47.62L53.65-47.62L53.19-44.06Q53.03-43.14 53.11-41.90Q53.19-40.66 53.19-40.04L53.19-40.04L53.19-35.25L53.19-30.15L53.34-28.60L53.19-25.67Q53.19-25.20 53.26-24.51Q53.34-23.81 53.19-22.88L53.19-22.88L52.88-21.65Q52.57-21.03 53.03-20.72L53.03-20.72L53.34-20.25L52.26-19.33Q51.95-18.86 51.79-18.24Q51.64-17.63 51.79-17.16L51.79-17.16Q52.10-16.39 52.03-16.08Q51.95-15.77 51.33-15.46L51.33-15.46Q50.56-15.15 50.33-14.30Q50.09-13.45 49.94-13.30L49.94-13.30L50.25-12.68L51.33-11.75Q52.57-10.51 52.57-10.51L52.57-10.51Q53.50-9.59 54.58-8.97L54.58-8.97Q54.89-8.66 55.66-9.12L55.66-9.12Q57.21-9.12 60.30-9.43L60.30-9.43Q61.53-9.59 63.16-9.90Q64.78-10.20 65.55-10.36L65.55-10.36L72.05-11.13L74.52-11.44L80.24-12.52Q81.02-12.83 81.02-12.06L81.02-12.06L80.86-9.90Q81.02-9.43 81.02-8.66L81.02-8.66Q81.02-7.73 80.86-6.80Q80.71-5.88 80.71-4.95L80.71-4.95Q80.71-4.17 80.55-3.25Q80.40-2.32 80.40-1.55L80.40-1.55Q80.24-0.15 80.24 2.47L80.24 2.47Q80.09 3.25 80.09 4.95L80.09 4.95L80.09 5.88L79.93 8.04L80.40 13.45L80.40 14.69Q80.40 15.00 80.47 15.69Q80.55 16.39 81.17 16.70L81.17 16.70Q81.17 16.70 81.25 16.78Q81.32 16.85 81.32 16.85L81.32 16.85Q81.79 17.78 83.18 17.47L83.18 17.47Q83.33 17.47 84.42 16.70L84.42 16.70Q84.73 17.63 85.04 18.09L85.04 18.09L85.65 17.01Q85.96 17.16 86.27 17.16Q86.58 17.16 86.74 16.70L86.74 16.70Q86.74 15.77 87.66 16.39L87.66 16.39Q87.66 15.46 87.90 15.31Q88.13 15.15 88.90 15.46L88.90 15.46L89.36 15.62L89.83 15.46Q90.45 13.91 90.60 13.14L90.60 13.14Q90.76 11.75 90.76 8.66L90.76 8.66L90.76 5.88Q90.76 3.87 90.60 2.63L90.60 2.63L90.45-0.77Q90.45-2.47 90.68-4.72Q90.91-6.96 90.91-8.04L90.91-8.04Q91.07-10.51 91.68-14.69L91.68-14.69Q91.68-15.77 92.46-15.92L92.46-15.92Q92.46-16.23 92.61-16.39L92.61-16.39Q92.61-16.85 92.92-17.16L92.92-17.16Q93.08-17.32 93.46-17.55Q93.85-17.78 94.00-18.09L94.00-18.09Q94.78-19.79 96.32-19.94L96.32-19.94Q97.25-20.25 97.71-21.03L97.71-21.03L95.70-22.11L95.24-22.11Q94.62-22.11 94.47-22.26L94.47-22.26L92.77-23.66L91.99-24.12L91.53-23.35Q91.22-23.50 91.22-23.96L91.22-23.96L91.07-30.77L91.07-36.49Q90.91-37.88 90.99-39.19Q91.07-40.51 90.91-41.90L90.91-41.90Q90.91-45.15 90.76-46.85L90.76-46.85Q90.60-47.16 90.60-47.93L90.60-47.93L90.60-48.86Q90.60-50.40 89.98-51.18L89.98-51.18Q89.36-52.26 89.36-53.96L89.36-53.96Q89.36-54.73 88.75-56.28L88.75-56.28Q88.59-56.43 88.59-56.90L88.59-56.90L89.21-57.05L89.83-56.90Q89.67-57.21 89.67-57.67L89.67-57.67Q89.67-58.13 90.29-58.75L90.29-58.75Q90.29-59.06 90.45-59.22L90.45-59.22Q91.07-60.45 91.68-60.92L91.68-60.92Q91.84-61.07 91.99-61.15Q92.15-61.23 91.84-61.53L91.84-61.53Q91.53-62.15 91.07-62.15L91.07-62.15Q86.43-63.24 83.03-63.24L83.03-63.24L80.71-63.24Q78.23-63.24 77.00-62.93L77.00-62.93Q75.14-62.62 70.19-61.69L70.19-61.69L68.34-61.23Q67.72-60.92 67.56-61.53L67.56-61.53Q67.41-62.00 67.10-62.00Q66.79-62.00 66.48-61.69L66.48-61.69Q65.86-60.76 66.48-60.14L66.48-60.14L66.95-59.68ZM80.40-39.43L80.55-35.10Q80.55-34.48 81.17-34.48L81.17-34.48Q81.17-33.24 81.02-32.62L81.02-32.62Q81.02-32.16 80.71-32.16L80.71-32.16Q80.09-32.16 79.16-32.08Q78.23-32.00 77.00-32.16L77.00-32.16Q76.38-32.31 75.53-32.31Q74.68-32.31 74.37-32.31L74.37-32.31L69.57-31.70Q67.56-31.39 64.16-31.08L64.16-31.08Q62.31-30.77 61.53-30.77L61.53-30.77Q60.45-30.61 60.45-31.54L60.45-31.54L60.92-34.17Q61.07-35.10 62.00-34.79L62.00-34.79L62.93-34.63Q63.70-34.63 64.70-34.94Q65.71-35.25 66.17-35.41L66.17-35.41Q70.97-36.95 73.75-37.42L73.75-37.42L75.45-37.88L75.60-38.03Q75.76-38.65 76.30-38.73Q76.84-38.81 77.00-38.81L77.00-38.81L80.40-39.43ZM80.71-29.22Q80.71-29.07 80.63-28.53Q80.55-27.98 81.32-28.14L81.32-28.14L81.32-24.12Q81.32-23.66 81.63-22.11L81.63-22.11Q81.63-21.49 81.02-21.49L81.02-21.49Q79.31-21.34 75.60-20.72L75.60-20.72L69.88-20.10L65.71-19.33L62.46-18.86Q61.69-18.71 60.14-18.71L60.14-18.71L59.99-19.02L60.76-19.33Q60.76-21.49 60.61-22.42L60.61-22.42Q60.61-23.35 61.38-23.35L61.38-23.35L69.88-24.27L71.43-24.74Q71.58-24.89 71.89-24.81Q72.20-24.74 72.36-24.89L72.36-24.89Q74.37-25.36 77.15-26.13L77.15-26.13L79.01-26.59Q79.31-26.75 79.93-27.37L79.93-27.37Q80.40-27.52 80.32-27.83Q80.24-28.14 80.24-28.29L80.24-28.29Q80.24-28.60 80.55-29.22L80.55-29.22L80.71-29.22Z" transform="translate(0 618.44) " fill="rgb(174, 127, 71)" stroke="rgb(174, 127, 71)" stroke-width="0.258" data-glyph-w="154.61" data-glyph-h="185.53200000000004" data-glyph-ascender="154.61" data-glyph-descender="-30.922000000000004"></path></g></svg></g>
        </g><g id="shape_C41y31AK5E" class="brand_slogan"  ref="shape_C41y31AK5E" key="shape_C41y31AK5E" transform="translate(342.95363140752823,200.31575149903907) rotate(91,134.72790918722,96.4) scale(1,1)" style="cursor:move;display:inline;opacity:1;" filter="">
            <g style="display:inline"><svg xmlns="http://www.w3.org/2000/svg" version="1.1" xmlns:xlink="http://www.w3.org/1999/xlink" width="320.20000000000005" height="192.8" viewBox="0 0 320.20000000000005 192.8" preserveAspectRatio="none" data-parent="shape_C41y31AK5E"><rect fill="rgba(0,0,0,0)" width="213" height="32" x="26.8" y="80.4"></rect><g data-width="212.791790625" transform="translate(27.008209374999996, 0)"><path d="M9.66-19.77L3.31-19.77L3.31-13.77L9.66-13.77Q10.90-13.77 11.78-14.64L11.78-14.64Q12.65-15.52 12.65-16.76L12.65-16.76Q12.65-18.02 11.78-18.90L11.78-18.90Q10.90-19.77 9.66-19.77L9.66-19.77ZM10.32-11.76L3.31-11.76L3.31-5.09L10.32-5.09Q11.70-5.09 12.68-6.06L12.68-6.06Q13.66-7.04 13.66-8.43L13.66-8.43Q13.66-9.80 12.68-10.78L12.68-10.78Q11.70-11.76 10.32-11.76L10.32-11.76ZM10.32-3.09L1.31-3.09L1.31-21.78L9.66-21.78Q11.72-21.78 13.19-20.31L13.19-20.31Q14.66-18.84 14.66-16.76L14.66-16.76Q14.66-14.70 13.19-13.23L13.19-13.23Q13.10-13.14 13.01-13.06L13.01-13.06Q13.58-12.71 14.09-12.20L14.09-12.20Q15.66-10.64 15.66-8.43L15.66-8.43Q15.66-6.22 14.09-4.65L14.09-4.65Q12.54-3.09 10.32-3.09L10.32-3.09Z" transform="translate(0 104.4) " fill="#AE7F47" stroke="#AE7F47" stroke-width="0.045" data-glyph-w="16.4490234375" data-glyph-h="27.925390625000002" data-glyph-ascender="22.45546875" data-glyph-descender="-5.469921875"></path><path d="M3.31-19.77L3.31-13.43L14.66-13.43L14.66-11.42L3.31-11.42L3.31-5.09L14.66-5.09L14.66-3.09L1.31-3.09L1.31-21.78L14.66-21.78L14.66-19.77L3.31-19.77Z" transform="translate(16.4490234375 104.4) " fill="#AE7F47" stroke="#AE7F47" stroke-width="0.045" data-glyph-w="15.44140625" data-glyph-h="27.925390625000002" data-glyph-ascender="22.45546875" data-glyph-descender="-5.469921875"></path><path d="" transform="translate(31.8904296875 104.4) " fill="#AE7F47" stroke="#AE7F47" stroke-width="0.045" data-glyph-w="10.666400000000001" data-glyph-h="26.8" data-glyph-ascender="23.584" data-glyph-descender="-3.216"></path><path d="M3.31-19.77L3.31-13.43L14.66-13.43L14.66-11.42L3.31-11.42L3.31-5.09L14.66-5.09L14.66-3.09L1.31-3.09L1.31-21.78L14.66-21.78L14.66-19.77L3.31-19.77Z" transform="translate(42.5568296875 104.4) " fill="#AE7F47" stroke="#AE7F47" stroke-width="0.045" data-glyph-w="15.44140625" data-glyph-h="27.925390625000002" data-glyph-ascender="22.45546875" data-glyph-descender="-5.469921875"></path><path d="M13.99-6.66L13.99-21.78L15.99-21.78L15.99-3.09L14.08-3.09L3.31-18.20L3.31-3.09L1.31-3.09L1.31-21.78L3.22-21.78L13.99-6.66Z" transform="translate(57.9982359375 104.4) " fill="#AE7F47" stroke="#AE7F47" stroke-width="0.045" data-glyph-w="17.299609375" data-glyph-h="27.925390625000002" data-glyph-ascender="22.45546875" data-glyph-descender="-5.469921875"></path><path d="M3.31-21.78L3.31-5.09L12.65-5.09L12.65-3.09L1.31-3.09L1.31-21.78L3.31-21.78Z" transform="translate(75.2978453125 104.4) " fill="#AE7F47" stroke="#AE7F47" stroke-width="0.045" data-glyph-w="13.439257812500001" data-glyph-h="27.925390625000002" data-glyph-ascender="22.45546875" data-glyph-descender="-5.469921875"></path><path d="M3.31-3.09L3.31-21.78L1.31-21.78L1.31-3.09L3.31-3.09Z" transform="translate(88.737103125 104.4) " fill="#AE7F47" stroke="#AE7F47" stroke-width="0.045" data-glyph-w="4.6193359375" data-glyph-h="27.925390625000002" data-glyph-ascender="22.45546875" data-glyph-descender="-5.469921875"></path><path d="M20.09-13.43L9.79-13.43L9.79-11.42L18.07-11.42Q17.77-8.89 15.89-7.00L15.89-7.00Q13.64-4.75 10.46-4.75L10.46-4.75Q7.28-4.75 5.03-7.00L5.03-7.00Q2.79-9.25 2.79-12.43L2.79-12.43Q2.79-15.61 5.03-17.86L5.03-17.86Q7.28-20.10 10.46-20.10L10.46-20.10Q14.04-20.10 16.34-17.37L16.34-17.37L17.88-18.65Q14.97-22.12 10.46-22.12L10.46-22.12Q6.45-22.12 3.61-19.28L3.61-19.28Q0.79-16.44 0.79-12.43L0.79-12.43Q0.79-8.41 3.61-5.59L3.61-5.59Q6.45-2.75 10.46-2.75L10.46-2.75Q14.47-2.75 17.30-5.59L17.30-5.59Q20.14-8.41 20.14-12.43L20.14-12.43Q20.14-12.93 20.09-13.43L20.09-13.43Z" transform="translate(93.3564390625 104.4) " fill="#AE7F47" stroke="#AE7F47" stroke-width="0.045" data-glyph-w="20.924414062500002" data-glyph-h="27.925390625000002" data-glyph-ascender="22.45546875" data-glyph-descender="-5.469921875"></path><path d="M13.32-11.42L3.31-11.42L3.31-3.09L1.31-3.09L1.31-21.78L3.31-21.78L3.31-13.43L13.32-13.43L13.32-21.78L15.32-21.78L15.32-3.09L13.32-3.09L13.32-11.42Z" transform="translate(114.28085312500001 104.4) " fill="#AE7F47" stroke="#AE7F47" stroke-width="0.045" data-glyph-w="16.6322265625" data-glyph-h="27.925390625000002" data-glyph-ascender="22.45546875" data-glyph-descender="-5.469921875"></path><path d="M6.79-3.09L6.79-19.77L0.79-19.77L0.79-21.78L14.80-21.78L14.80-19.77L8.79-19.77L8.79-3.09L6.79-3.09Z" transform="translate(130.91307968750002 104.4) " fill="#AE7F47" stroke="#AE7F47" stroke-width="0.045" data-glyph-w="15.5853515625" data-glyph-h="27.925390625000002" data-glyph-ascender="22.45546875" data-glyph-descender="-5.469921875"></path><path d="M3.31-19.77L3.31-13.43L14.66-13.43L14.66-11.42L3.31-11.42L3.31-5.09L14.66-5.09L14.66-3.09L1.31-3.09L1.31-21.78L14.66-21.78L14.66-19.77L3.31-19.77Z" transform="translate(146.49843125 104.4) " fill="#AE7F47" stroke="#AE7F47" stroke-width="0.045" data-glyph-w="15.44140625" data-glyph-h="27.925390625000002" data-glyph-ascender="22.45546875" data-glyph-descender="-5.469921875"></path><path d="M13.99-6.66L13.99-21.78L15.99-21.78L15.99-3.09L14.08-3.09L3.31-18.20L3.31-3.09L1.31-3.09L1.31-21.78L3.22-21.78L13.99-6.66Z" transform="translate(161.9398375 104.4) " fill="#AE7F47" stroke="#AE7F47" stroke-width="0.045" data-glyph-w="17.299609375" data-glyph-h="27.925390625000002" data-glyph-ascender="22.45546875" data-glyph-descender="-5.469921875"></path><path d="M3.31-19.77L3.31-13.43L14.66-13.43L14.66-11.42L3.31-11.42L3.31-5.09L14.66-5.09L14.66-3.09L1.31-3.09L1.31-21.78L14.66-21.78L14.66-19.77L3.31-19.77Z" transform="translate(179.239446875 104.4) " fill="#AE7F47" stroke="#AE7F47" stroke-width="0.045" data-glyph-w="15.44140625" data-glyph-h="27.925390625000002" data-glyph-ascender="22.45546875" data-glyph-descender="-5.469921875"></path><path d="M8.99-3.09L1.31-3.09L1.31-21.78L8.99-21.78Q12.44-21.78 14.89-19.04L14.89-19.04Q17.33-16.31 17.33-12.43L17.33-12.43Q17.33-8.56 14.89-5.82L14.89-5.82Q12.44-3.09 8.99-3.09L8.99-3.09ZM8.99-19.77L3.31-19.77L3.31-5.09L8.99-5.09Q11.62-5.09 13.47-7.24L13.47-7.24Q15.32-9.38 15.32-12.43L15.32-12.43Q15.32-15.47 13.47-17.63L13.47-17.63Q11.62-19.77 8.99-19.77L8.99-19.77Z" transform="translate(194.680853125 104.4) " fill="#AE7F47" stroke="#AE7F47" stroke-width="0.045" data-glyph-w="18.110937500000002" data-glyph-h="27.925390625000002" data-glyph-ascender="22.45546875" data-glyph-descender="-5.469921875"></path></g></svg></g>
        </g><g id="shape_LEhxycLRRn" class="brand_number"  ref="shape_LEhxycLRRn" key="shape_LEhxycLRRn" transform="translate(224.11646234845003,-65.93041052325998) rotate(0,202.787524426588,436.62) scale(1,1)" style="cursor:move;display:inline;opacity:1;" filter="">
            <g style="display:inline"><svg xmlns="http://www.w3.org/2000/svg" version="1.1" xmlns:xlink="http://www.w3.org/1999/xlink" width="606.12" height="873.24" viewBox="0 0 606.12 873.24" preserveAspectRatio="none" data-parent="shape_LEhxycLRRn"><rect fill="rgba(0,0,0,0)" width="122" height="145" x="121.03" y="364.12"></rect><g data-width="121.03" transform="translate(121.515, 0)"><path d="M42.60-2.54L42.97-2.54L45.02-3.15Q47.20-3.15 48.41-3.27L48.41-3.27L57.73-3.75Q59.91-3.75 61.00-3.87L61.00-3.87Q62.33-4.12 63.42-4.42Q64.51-4.72 65.24-4.96L65.24-4.96Q66.32-5.33 67.66-5.33L67.66-5.33L69.96-5.33Q70.56-5.33 71.59-5.45Q72.62-5.57 73.34-5.69L73.34-5.69Q73.71-5.69 74.37-6.11Q75.04-6.54 75.52-6.41L75.52-6.41L75.89-6.54Q76.01-6.78 76.61-6.90Q77.22-7.02 77.70-7.02Q78.19-7.02 77.94-6.90L77.94-6.90Q76.98-6.41 77.46-5.45L77.46-5.45L77.46-4.96Q77.70-4.96 78.19-5.08Q78.67-5.20 78.91-5.33L78.91-5.33Q79.64-5.69 80.91-6.29Q82.18-6.90 83.15-7.14L83.15-7.14Q83.39-7.14 83.87-7.62L83.87-7.62Q84.24-7.62 84.48-7.75Q84.72-7.87 84.96-7.99L84.96-7.99Q85.08-7.99 85.21-7.81Q85.33-7.62 85.33-7.38L85.33-7.38Q85.45-7.38 85.57-7.02L85.57-7.02Q85.81-8.11 86.05-8.47L86.05-8.47Q87.02-10.29 87.02-12.83L87.02-12.83L86.90-14.89Q86.90-16.58 87.38-17.91L87.38-17.91L87.75-19.73Q87.87-20.21 87.87-21.06L87.87-21.06Q88.23-22.87 88.23-23.12L88.23-23.12Q88.47-25.05 88.71-28.68L88.71-28.68Q88.84-30.02 88.84-32.92L88.84-32.92L88.84-34.49Q88.84-35.22 88.90-36.19Q88.96-37.16 88.84-38.49L88.84-38.49Q88.84-39.82 88.59-42.97L88.59-42.97Q88.11-47.81 87.63-49.99L87.63-49.99Q87.50-50.71 86.84-51.62Q86.17-52.53 86.05-53.01L86.05-53.01L86.05-53.13Q85.69-53.37 85.27-53.68Q84.84-53.98 84.24-54.34L84.24-54.34Q79.64-56.52 76.13-56.52L76.13-56.52Q72.01-56.52 69.96-56.40L69.96-56.40L62.69-56.04L56.40-55.67L56.04-55.67L56.28-56.04Q56.76-56.40 58.34-57.49L58.34-57.49L59.18-58.22Q59.55-58.46 60.27-58.88Q61.00-59.30 61.36-59.67L61.36-59.67Q62.09-60.52 62.88-61.60Q63.66-62.69 64.75-63.90L64.75-63.90Q64.87-64.02 65.17-64.57Q65.48-65.11 65.90-65.30Q66.32-65.48 66.93-65.36L66.93-65.36L67.29-65.48Q69.71-65.96 71.04-66.08L71.04-66.08L74.80-66.45Q75.52-66.57 76.55-66.75Q77.58-66.93 78.31-66.93L78.31-66.93L80.00-66.93Q81.82-66.93 82.66-67.17L82.66-67.17Q83.99-67.66 85.08-67.78L85.08-67.78Q85.45-67.90 89.93-68.50L89.93-68.50Q90.41-68.75 90.41-69.23L90.41-69.23Q90.41-69.35 90.53-69.47Q90.65-69.59 90.77-69.59L90.77-69.59Q91.01-69.71 91.98-70.08L91.98-70.08L93.56-71.04Q94.65-71.65 94.65-72.62L94.65-72.62Q95.25-73.22 95.25-73.22L95.25-73.22Q95.73-73.34 96.34-73.47Q96.95-73.59 97.43-73.71L97.43-73.71Q97.91-73.71 97.91-73.83L97.91-73.83L98.64-75.04Q98.64-75.04 98.58-75.10Q98.52-75.16 98.52-75.16L98.52-75.16Q98.16-75.40 97.37-75.70Q96.58-76.01 96.46-76.73L96.46-76.73Q96.34-76.85 95.13-77.22L95.13-77.22Q92.22-78.06 88.96-78.06L88.96-78.06Q85.81-78.06 79.52-77.82L79.52-77.82Q76.13-77.58 74.19-77.34L74.19-77.34L73.71-77.34Q73.83-78.31 74.19-78.73Q74.55-79.15 75.52-79.27L75.52-79.27Q75.64-79.27 76.01-79.27Q76.37-79.27 76.73-78.79L76.73-78.79Q77.22-78.31 77.70-78.31L77.70-78.31Q78.19-78.31 78.91-78.55L78.91-78.55Q79.52-78.91 79.76-79.64L79.76-79.64Q79.76-79.88 79.88-80.24Q80.00-80.61 80.12-80.73L80.12-80.73Q80.48-81.45 80.48-81.94L80.48-81.94Q80.36-82.30 80.85-82.66L80.85-82.66Q81.82-83.15 82.30-83.63L82.30-83.63Q82.54-83.87 82.54-83.99L82.54-83.99Q82.54-84.96 81.94-85.57L81.94-85.57Q81.57-85.93 81.15-86.54Q80.73-87.14 80.24-87.38L80.24-87.38Q79.88-87.50 79.52-87.75Q79.15-87.99 78.67-88.11L78.67-88.11L76.73-89.08Q75.52-90.17 73.95-90.17L73.95-90.17Q73.10-90.17 72.62-89.93L72.62-89.93Q71.41-89.44 71.53-88.47L71.53-88.47Q71.53-88.47 71.47-88.41Q71.41-88.35 71.41-88.35L71.41-88.35L70.44-86.17Q71.04-85.93 71.04-85.81L71.04-85.81Q71.17-85.69 70.68-85.21L70.68-85.21Q70.80-85.21 71.35-84.96Q71.89-84.72 71.89-83.99L71.89-83.99L71.89-80.61L72.01-79.52Q72.01-79.03 71.65-78.43L71.65-78.43Q71.41-78.19 71.41-77.82L71.41-77.82L71.41-77.70Q71.41-77.10 70.80-76.98Q70.20-76.85 70.08-76.85L70.08-76.85L69.59-76.85L61.73-75.76L55.67-75.04Q52.77-74.80 50.95-74.55L50.95-74.55L49.74-74.68L49.99-75.64Q49.99-76.85 51.20-77.22L51.20-77.22Q51.68-77.58 52.28-77.88Q52.89-78.19 53.50-78.67L53.50-78.67Q53.86-79.03 54.04-79.52Q54.22-80.00 54.46-80.36L54.46-80.36L54.34-80.61L54.22-81.57L52.16-81.45Q51.20-81.45 50.71-81.57L50.71-81.57Q50.11-81.57 50.23-82.18L50.23-82.18Q50.35-82.30 50.29-82.48Q50.23-82.66 50.11-82.78L50.11-82.78L49.02-84.12L48.53-84.36L47.32-84.72Q46.84-84.96 46.42-85.08Q45.99-85.21 45.63-85.33L45.63-85.33L45.02-85.45Q43.45-86.05 42.36-86.05L42.36-86.05Q41.15-86.05 39.58-85.45L39.58-85.45Q38.73-85.08 39.09-84.36L39.09-84.36Q38.61-84.12 38.61-83.93Q38.61-83.75 38.97-83.39L38.97-83.39L39.21-82.91Q39.09-82.42 39.70-82.18L39.70-82.18Q39.82-82.18 40.18-81.94Q40.55-81.70 40.18-81.21L40.18-81.21L40.42-80.73Q40.91-80.12 41.69-79.21Q42.48-78.31 42.97-77.58L42.97-77.58Q43.21-77.34 43.93-76.79Q44.66-76.25 44.78-75.52L44.78-75.52Q44.78-75.40 44.90-75.40L44.90-75.40Q45.02-75.16 45.39-74.80Q45.75-74.43 46.11-74.07L46.11-74.07L45.51-74.07Q44.78-73.95 43.63-73.77Q42.48-73.59 41.76-73.59L41.76-73.59L35.10-73.71Q33.40-73.71 32.44-75.04L32.44-75.04Q31.83-75.89 30.50-75.89L30.50-75.89Q30.38-75.40 30.26-75.04Q30.14-74.68 30.02-74.31L30.02-74.31Q30.02-74.07 29.77-73.40Q29.53-72.74 30.02-72.25L30.02-72.25Q30.14-72.01 30.14-71.17L30.14-71.17L30.02-70.20Q30.02-69.59 30.38-68.99L30.38-68.99Q31.35-67.05 31.35-65.36L31.35-65.36Q31.35-64.39 31.23-63.90L31.23-63.90L31.59-64.02L31.71-63.66Q31.71-62.45 32.68-61.24L32.68-61.24Q33.40-60.39 33.89-60.76L33.89-60.76Q34.01-60.88 34.19-60.88Q34.37-60.88 34.49-61.00L34.49-61.00Q34.74-61.12 35.16-61.24Q35.58-61.36 36.07-61.73L36.07-61.73Q36.07-61.73 36.31-62.03Q36.55-62.33 36.79-62.33L36.79-62.33Q38.49-62.81 39.33-62.94L39.33-62.94L40.18-63.06Q40.67-63.06 41.57-63.12Q42.48-63.18 43.09-63.42L43.09-63.42Q45.75-64.15 46.96-64.15L46.96-64.15Q48.29-64.15 49.44-64.02Q50.59-63.90 51.80-63.90L51.80-63.90Q53.37-63.90 54.83-64.27L54.83-64.27Q56.04-64.51 57.97-64.75L57.97-64.75L58.09-64.51L57.25-63.54Q55.07-60.27 54.34-59.30L54.34-59.30Q53.98-58.82 52.04-56.52L52.04-56.52Q51.07-55.19 50.59-54.83L50.59-54.83Q49.74-54.22 48.23-53.92Q46.72-53.62 45.99-53.37L45.99-53.37Q45.14-53.13 43.87-53.01Q42.60-52.89 41.76-52.77L41.76-52.77Q41.39-52.77 40.91-53.01L40.91-53.01Q40.55-53.13 40.06-53.37Q39.58-53.62 38.97-53.86L38.97-53.86L38.73-53.86Q38.49-53.86 38.31-53.62Q38.12-53.37 38.25-53.01L38.25-53.01L38.37-52.65Q37.64-52.41 38.00-51.44L38.00-51.44L37.88-50.95L37.76-49.74Q38.00-48.53 38.00-48.05L38.00-48.05Q38.00-46.96 37.88-46.23Q37.76-45.51 37.64-45.02L37.64-45.02Q37.52-43.57 37.52-40.91L37.52-40.91L37.52-36.79L37.64-32.19Q37.40-26.63 37.40-23.72L37.40-23.72Q37.40-20.94 37.52-19.49L37.52-19.49Q37.52-18.28 37.76-16.34L37.76-16.34L38.12-12.95Q38.25-12.59 38.18-12.16Q38.12-11.74 38.25-11.38L38.25-11.38Q38.49-10.41 38.85-9.80L38.85-9.80Q39.09-9.20 38.73-8.59L38.73-8.59Q38.25-7.62 38.61-7.26L38.61-7.26Q39.21-6.66 39.21-6.41Q39.21-6.17 38.73-5.69L38.73-5.69Q38.85-5.57 38.97-5.39Q39.09-5.20 39.09-5.08L39.09-5.08L38.97-4.72Q38.97-4.12 39.94-3.63L39.94-3.63Q40.79-3.39 40.55-3.03L40.55-3.03Q40.91-2.66 41.39-2.66L41.39-2.66Q41.76-2.66 42.18-2.90Q42.60-3.15 42.97-3.15L42.97-3.15Q42.84-3.03 42.60-2.54L42.60-2.54ZM79.64-37.64L79.52-36.79Q79.27-30.98 79.03-27.96L79.03-27.96Q79.03-26.87 78.79-24.69L78.79-24.69L78.43-21.30L78.55-18.64Q78.67-17.67 78.67-15.85L78.67-15.85L78.91-14.28Q78.91-13.68 78.43-13.92L78.43-13.92L76.73-14.40Q76.13-14.40 76.01-14.28L76.01-14.28Q75.64-14.04 75.16-14.04Q74.68-14.04 74.43-14.04L74.43-14.04Q73.71-14.16 72.13-14.16L72.13-14.16Q69.47-14.16 65.84-13.56L65.84-13.56Q64.51-13.43 61.00-12.95L61.00-12.95L56.16-12.22Q51.07-11.74 48.53-11.38L48.53-11.38L43.69-11.01Q43.09-11.01 42.97-11.13L42.97-11.13L42.72-12.22L42.72-14.77L42.72-15.37Q42.72-15.73 43.03-16.04Q43.33-16.34 43.81-16.34L43.81-16.34Q43.81-16.34 44.18-16.28Q44.54-16.22 44.78-16.34L44.78-16.34L46.35-16.70Q47.93-17.43 49.80-17.79Q51.68-18.15 53.50-18.28L53.50-18.28Q54.34-18.28 55.67-18.34Q57.01-18.40 58.82-18.64L58.82-18.64Q60.03-18.76 61.48-19.12Q62.94-19.49 63.54-19.61L63.54-19.61Q64.02-19.73 64.69-19.67Q65.36-19.61 65.60-19.61L65.60-19.61Q67.29-19.61 68.14-20.45L68.14-20.45Q68.50-20.70 69.35-20.70L69.35-20.70Q69.71-20.82 70.02-20.76Q70.32-20.70 70.56-20.70L70.56-20.70L70.20-21.79L71.17-22.15L71.17-22.27Q70.92-22.75 70.92-23.00L70.92-23.00Q70.92-23.84 72.38-24.08L72.38-24.08Q72.50-24.08 72.80-24.02Q73.10-23.96 73.22-24.08L73.22-24.08Q73.71-24.08 73.95-24.33L73.95-24.33Q73.95-24.45 73.89-24.63Q73.83-24.81 73.83-25.17L73.83-25.17L75.28-25.42Q74.92-25.42 74.80-25.54L74.80-25.54Q74.55-25.54 73.83-26.02L73.83-26.02L73.34-26.26L70.20-27.35Q69.83-27.47 69.23-27.47L69.23-27.47Q68.50-27.59 66.93-27.59L66.93-27.59Q65.11-27.59 61.00-27.11L61.00-27.11Q56.16-26.63 53.74-26.51L53.74-26.51Q47.56-26.26 44.78-25.54L44.78-25.54Q44.30-25.42 44.05-25.66L44.05-25.66Q43.93-25.90 43.63-26.14Q43.33-26.38 43.21-26.63L43.21-26.63Q42.84-26.99 42.84-27.11L42.84-27.11L42.97-30.02L42.84-31.35Q42.72-31.47 42.72-32.19L42.72-32.19Q43.33-31.59 43.69-31.89Q44.05-32.19 44.18-32.32L44.18-32.32Q44.66-32.56 45.87-32.80L45.87-32.80Q51.68-33.77 54.58-34.13L54.58-34.13Q56.76-34.37 59.55-34.49Q62.33-34.61 63.42-34.61L63.42-34.61L66.81-34.49Q67.17-34.49 67.41-34.68Q67.66-34.86 68.02-34.86L68.02-34.86Q68.14-34.98 68.44-34.92Q68.75-34.86 68.87-34.86L68.87-34.86L69.23-34.86L70.80-35.82Q70.92-35.95 70.98-36.19Q71.04-36.43 70.92-36.67L70.92-36.67Q70.92-37.40 71.65-37.40L71.65-37.40L72.50-37.40L73.71-37.52L73.47-38.49Q72.98-39.58 72.13-39.82L72.13-39.82L69.71-40.79L68.75-41.03Q67.66-41.15 66.14-41.27Q64.63-41.39 62.57-41.39L62.57-41.39L58.58-41.27Q56.52-41.15 53.25-40.67L53.25-40.67Q49.26-40.18 47.56-39.82L47.56-39.82L42.97-39.09Q42.24-38.97 42.24-39.82L42.24-39.82L42.12-43.21Q42.00-44.30 42.06-45.08Q42.12-45.87 42.12-46.48L42.12-46.48Q42.24-46.84 42.48-46.90Q42.72-46.96 42.84-46.96L42.84-46.96L43.45-46.84Q43.69-46.72 44.30-46.72L44.30-46.72Q45.02-46.72 45.99-47.02Q46.96-47.32 47.81-47.44L47.81-47.44Q51.44-47.93 52.53-48.05L52.53-48.05Q53.62-48.17 55.07-48.29Q56.52-48.41 57.37-48.41L57.37-48.41Q59.43-48.41 60.52-48.53L60.52-48.53Q61.73-48.65 62.69-48.90Q63.66-49.14 64.51-49.26L64.51-49.26Q66.20-49.50 66.93-49.74L66.93-49.74Q68.50-50.23 71.77-49.99L71.77-49.99L72.62-49.99L76.01-50.11Q76.85-50.11 77.34-49.99L77.34-49.99Q77.70-49.74 77.94-49.14L77.94-49.14Q78.55-47.44 78.85-45.45Q79.15-43.45 79.27-42.84L79.27-42.84Q79.52-41.39 79.52-38.73L79.52-38.73L79.64-37.64ZM8.23-17.31L8.35-17.19Q9.56-18.15 10.05-18.76L10.05-18.76Q13.56-23.60 13.92-24.08L13.92-24.08L16.58-27.96Q16.58-27.96 19.49-32.32L19.49-32.32Q19.85-32.80 20.27-33.59Q20.70-34.37 21.18-34.86L21.18-34.86Q21.91-35.58 22.33-36.73Q22.75-37.88 22.87-38.25L22.87-38.25L24.21-41.27Q24.33-41.51 24.33-42.00L24.33-42.00Q24.33-43.09 23.36-43.45L23.36-43.45Q22.15-44.54 20.45-44.54L20.45-44.54Q19.36-44.54 18.88-44.30L18.88-44.30L18.64-44.30L18.76-44.42Q17.79-45.39 17.79-45.39L17.79-45.39Q16.58-45.87 15.37-46.11L15.37-46.11Q14.89-46.23 14.40-46.17Q13.92-46.11 13.56-46.23L13.56-46.23Q12.95-46.23 12.83-45.75L12.83-45.75L12.35-44.42Q11.98-42.72 11.26-41.27L11.26-41.27Q9.44-38.61 8.84-36.91L8.84-36.91Q7.99-35.82 8.47-34.98L8.47-34.98Q8.96-35.34 9.32-35.82L9.32-35.82Q10.29-37.28 11.74-37.40L11.74-37.40Q11.98-37.40 11.98-37.64L11.98-37.64L13.43-38.85L14.16-39.33L14.40-39.21Q13.68-38.49 13.56-37.88L13.56-37.88L17.07-38.97L17.79-38.97Q18.88-38.97 19.61-38.85L19.61-38.85Q19.00-37.76 18.58-36.91Q18.15-36.07 17.79-35.46L17.79-35.46L16.46-33.53L15.01-31.47Q13.43-29.41 10.53-25.05L10.53-25.05Q9.68-23.84 8.47-21.66L8.47-21.66Q8.35-21.42 8.35-21.06L8.35-21.06L8.35-20.21Q8.23-20.09 8.29-19.97Q8.35-19.85 8.35-19.73L8.35-19.73L8.47-19.36Q8.23-18.15 8.23-17.31L8.23-17.31ZM10.89-6.78L11.13-6.66Q11.74-7.50 12.41-8.23Q13.07-8.96 13.56-9.80L13.56-9.80Q15.25-12.22 16.34-14.28L16.34-14.28Q16.46-14.40 16.64-14.71Q16.82-15.01 17.19-15.25L17.19-15.25Q18.40-16.10 20.21-16.70L20.21-16.70Q20.33-16.82 20.70-16.82L20.70-16.82Q20.70-16.70 20.76-16.58Q20.82-16.46 20.70-16.22L20.70-16.22L19.97-13.92L19.73-13.56L18.64-11.13Q17.55-8.84 17.31-7.26L17.31-7.26Q17.07-6.05 16.58-4.66Q16.10-3.27 15.98-2.78L15.98-2.78Q15.85-1.94 15.37-0.24L15.37-0.24Q15.25 0.12 15.13 0.54Q15.01 0.97 14.89 1.45L14.89 1.45Q14.64 2.06 15.13 2.66L15.13 2.66Q15.13 2.66 15.37 2.90L15.37 2.90Q15.61 3.51 15.85 5.45L15.85 5.45Q16.22 5.45 16.34 5.33L16.34 5.33Q17.07 4.36 17.19 3.87L17.19 3.87Q17.91 1.82 18.34 0.24Q18.76-1.33 19.00-2.30L19.00-2.30Q19.97-5.81 20.09-6.54L20.09-6.54Q20.21-8.35 20.82-9.98Q21.42-11.62 22.51-14.04L22.51-14.04Q22.87-15.13 24.45-18.28L24.45-18.28L24.81-19.49L24.81-19.97Q24.81-21.79 23.00-21.54L23.00-21.54L20.33-20.82L18.28-19.85L18.03-21.30Q17.91-21.91 17.07-21.91L17.07-21.91Q16.58-22.03 16.34-21.30L16.34-21.30Q16.10-20.70 15.85-19.97Q15.61-19.24 15.25-18.40L15.25-18.40Q14.89-17.55 13.92-16.10L13.92-16.10Q13.43-15.01 12.47-13.80L12.47-13.80Q12.10-13.43 11.98-12.83L11.98-12.83Q11.86-12.47 11.68-12.22Q11.50-11.98 11.38-11.50L11.38-11.50Q10.89-10.53 10.77-9.92L10.77-9.92Q10.77-9.92 10.77-9.86Q10.77-9.80 10.77-9.80L10.77-9.80L10.89-8.96L10.89-6.78ZM21.91 1.57Q23.00 3.27 26.02 4.96L26.02 4.96Q31.10 7.38 33.65 8.35L33.65 8.35Q35.95 9.44 38.85 9.92Q41.76 10.41 42.72 10.65L42.72 10.65L49.38 12.10L55.92 13.56Q56.76 13.80 59.43 14.40L59.43 14.40Q60.88 14.89 62.94 15.25L62.94 15.25Q64.75 15.49 68.14 15.73L68.14 15.73L68.99 15.85L70.32 15.85L73.47 15.98L77.82 15.85Q78.79 15.73 80.73 15.73L80.73 15.73Q82.18 15.73 83.03 15.61L83.03 15.61Q83.75 15.37 84.48 15.37L84.48 15.37L85.93 15.13Q88.23 14.77 89.93 14.28L89.93 14.28Q94.28 12.83 95.13 12.59L95.13 12.59Q95.98 12.35 96.34 11.86L96.34 11.86Q96.70 11.26 97.19 11.26L97.19 11.26Q98.16 10.89 98.28 10.77L98.28 10.77Q98.64 10.65 99.37 10.47Q100.09 10.29 100.33 9.68L100.33 9.68L100.82 9.32L102.15 8.71Q105.66 6.90 107.72 4.48L107.72 4.48Q107.84 4.24 109.41 2.06L109.41 2.06Q109.53 1.82 109.53 1.45L109.53 1.45Q109.29 1.21 108.93 1.21L108.93 1.21L106.39 1.33L102.88 1.45L96.58 1.45Q93.56 1.45 92.10 1.57L92.10 1.57L87.38 2.06Q85.21 2.30 84.36 2.54L84.36 2.54Q80.97 3.03 79.27 3.15L79.27 3.15L75.76 3.39Q74.68 3.39 72.25 3.63L72.25 3.63L66.32 3.75Q64.99 3.87 62.09 3.87L62.09 3.87Q61.00 3.87 59.37 3.93Q57.73 3.99 55.55 3.87L55.55 3.87L47.81 3.51Q43.69 3.27 41.88 3.03L41.88 3.03Q40.42 2.78 36.31 2.06L36.31 2.06Q34.61 1.82 31.47 1.09L31.47 1.09Q29.89 0.73 25.66-0.61L25.66-0.61Q24.45-0.85 23.96-0.85L23.96-0.85L22.63-1.09L22.51-0.85L23.48-0.24L22.51 0.24L23.36 0.97L24.21 1.45L24.08 1.57L21.91 1.57Z" transform="translate(0 484.12) " fill="rgb(174, 127, 71)" stroke="rgb(174, 127, 71)" stroke-width="0.202" data-glyph-w="121.03" data-glyph-h="145.236" data-glyph-ascender="121.03" data-glyph-descender="-24.206"></path></g></svg></g>
        </g>
  </svg>